<?xml version="1.0" ?><svg enable-background="new 0 0 512 512" id="Layer_1" version="1.1" viewBox="0 0 512 512" xml:space="preserve" xmlns="http://www.w3.org/2000/svg" xmlns:xlink="http://www.w3.org/1999/xlink"><g><g><linearGradient gradientUnits="userSpaceOnUse" id="SVGID_1_" x1="-0.0000027" x2="512" y1="256" y2="256"><stop offset="0" style="stop-color:#33B49D"/><stop offset="1" style="stop-color:#00A185"/></linearGradient><circle cx="256" cy="256" fill="url(#SVGID_1_)" r="256"/><linearGradient gradientUnits="userSpaceOnUse" id="SVGID_2_" x1="42.6666641" x2="469.3333435" y1="256.0005188" y2="256.0005188"><stop offset="0" style="stop-color:#00A185"/><stop offset="1" style="stop-color:#33B49D"/></linearGradient><path d="M256,469.3338623c-117.6314697,0-213.3333435-95.7023926-213.3333435-213.3333435    c0-117.6314545,95.7018661-213.333313,213.3333435-213.333313c117.636261,0,213.3333435,95.7018661,213.3333435,213.333313    C469.3333435,373.6314697,373.636261,469.3338623,256,469.3338623z" fill="url(#SVGID_2_)"/></g><g><path d="M234.4001007,271.2746582c0,16.3200073,13.2789459,29.598938,29.599411,29.598938    c16.3209229,0,29.5998535-13.2789307,29.5998535-29.598938v-5h88.6134338l-43.2133179-120.9498596H189.0003204    l-43.2131195,120.9498596h88.6128998V271.2746582z M205.2497559,172.8250732h117.4995728v10H205.2497559V172.8250732z     M195.8747711,203.4496002h136.2494965v10H195.8747711V203.4496002z M183.374939,244.0746613v-10h161.249054v10H183.374939z" opacity="0.3"/><path d="M303.2842712,276.2746582c-2.4661255,19.4815979-19.1428833,34.598938-39.2847595,34.598938    c-20.1414337,0-36.8183899-15.1173401-39.2843628-34.598938h-80.7146149v106.4000244h239.9989471V276.2746582H303.2842712z     M215.8747253,361.9914551h-9.9999542v-10h9.9999542V361.9914551z M242.4470825,361.9914551h-0.0735016h-9.9264374h-0.0735474v-10    h0.0735474h9.9264374h0.0735016V361.9914551z M269.0214844,361.9914551H268.875h-9.8535156H258.875v-10h0.1464844H268.875    h0.1464844V361.9914551z M295.5935974,361.9914551h-0.2197266h-9.7799377h-0.2200012v-10h0.2200012h9.7799377h0.2197266    V361.9914551z M322.165863,361.9914551h-0.2906494h-9.7093506h-0.2906494v-10h0.2906494h9.7093506h0.2906494V361.9914551z" opacity="0.3"/></g><g><path d="M226.4001007,263.2746582c0,16.3200073,13.2789612,29.598938,29.5994263,29.598938    c16.3209076,0,29.5998383-13.2789307,29.5998383-29.598938v-5h88.6134338l-43.2133179-120.9498596H181.0005341    l-43.2133331,120.9498596h88.6128998V263.2746582z M197.2497559,164.8250732h117.4995728v10H197.2497559V164.8250732z     M187.8747711,195.4496002h136.2494965v10H187.8747711V195.4496002z M175.374939,236.0746613v-10h161.249054v10H175.374939z" fill="#FFFFFF"/><path d="M295.2842712,268.2746582c-2.4659119,19.4815979-19.1428833,34.598938-39.2847443,34.598938    c-20.141449,0-36.8184052-15.1173401-39.2843781-34.598938h-80.7146149v106.4000244h239.9989471V268.2746582H295.2842712z     M207.8747253,353.9914551h-9.9999542v-10h9.9999542V353.9914551z M234.4470978,353.9914551h-0.0735016h-9.9264526h-0.0735474v-10    h0.0735474h9.9264526h0.0735016V353.9914551z M261.0214844,353.9914551H260.875h-9.8535004h-0.1465149v-10h0.1465149H260.875    h0.1464844V353.9914551z M287.5938721,353.9914551h-0.2200012h-9.7799377h-0.2200012v-10h0.2200012h9.7799377h0.2200012    V353.9914551z M314.165863,353.9914551h-0.2906494h-9.7093506h-0.2906494v-10h0.2906494h9.7093506h0.2906494V353.9914551z" fill="#FFFFFF"/></g></g></svg>